<?xml version="1.0" encoding="utf-8"?>
<!-- Generator: Adobe Illustrator 21.1.0, SVG Export Plug-In . SVG Version: 6.00 Build 0)  -->
<svg version="1.1" id="Layer_1" xmlns="http://www.w3.org/2000/svg" xmlns:xlink="http://www.w3.org/1999/xlink" x="0px" y="0px"
	 viewBox="0 0 130 130" style="enable-background:new 0 0 130 130;" xml:space="preserve">
<style type="text/css">
	.st0{fill:#FEFEFE;}
</style>
<path class="st0" d="M65,15.5c13.7,0,26,5.5,35,14.5s14.5,21.3,14.5,35S109,91,100,100s-21.3,14.5-35,14.5S39,109,30,100
	S15.5,78.7,15.5,65S21,39,30,30S51.3,15.5,65,15.5L65,15.5z M97.3,32.7C89,24.5,77.6,19.3,65,19.3s-24,5.1-32.3,13.4
	C24.5,41,19.3,52.4,19.3,65s5.1,24,13.4,32.3s19.7,13.4,32.3,13.4s24-5.1,32.3-13.4s13.4-19.7,13.4-32.3
	C110.7,52.4,105.6,41,97.3,32.7L97.3,32.7z"/>
<path class="st0" d="M68.8,54.9v-4.1c0-1.9,1.3-2.4,2.2-2.4c0.9,0,5.7,0,5.7,0v-8.7h-7.8c-8.7,0-10.6,6.4-10.6,10.6v4.6h-5V61v4h5.1
	c0,11.5,0,25.3,0,25.3h10.1c0,0,0-14,0-25.3H76l0.3-4l0.6-6.1H68.8z"/>
</svg>
