<?xml version="1.0" encoding="utf-8"?>
<!-- Generator: Adobe Illustrator 21.1.0, SVG Export Plug-In . SVG Version: 6.00 Build 0)  -->
<svg version="1.1" id="Layer_1" xmlns="http://www.w3.org/2000/svg" xmlns:xlink="http://www.w3.org/1999/xlink" x="0px" y="0px"
	 viewBox="0 0 130 130" style="enable-background:new 0 0 130 130;" xml:space="preserve">
<style type="text/css">
	.st0{fill:#FEFEFE;}
</style>
<path class="st0" d="M65,15.5c13.7,0,26.1,5.5,35,14.5c9,9,14.5,21.3,14.5,35S109,91,100,100c-8.9,9-21.3,14.5-35,14.5
	S39,109,30,100S15.5,78.7,15.5,65S21,39,30,30S51.3,15.5,65,15.5L65,15.5z M97.3,32.7C89,24.5,77.6,19.3,65,19.3s-24,5.1-32.3,13.4
	C24.5,41,19.3,52.4,19.3,65s5.1,24,13.4,32.3s19.7,13.4,32.3,13.4s24-5.1,32.3-13.4s13.4-19.7,13.4-32.3
	C110.7,52.4,105.6,41,97.3,32.7L97.3,32.7z"/>
<path class="st0" d="M52.3,65c0-7,5.7-12.7,12.7-12.7S77.7,58,77.7,65S72,77.7,65,77.7S52.3,72,52.3,65L52.3,65z M78.1,40.2H51.9
	c-6.4,0-11.7,5.3-11.7,11.7v26.2c0,6.4,5.3,11.7,11.7,11.7h26.2c6.5,0,11.7-5.3,11.7-11.7V51.9C89.8,45.4,84.6,40.2,78.1,40.2
	L78.1,40.2z M51.9,43.1h26.2c4.9,0,8.8,3.9,8.8,8.8v26.2c0,4.9-3.9,8.8-8.8,8.8H51.9c-4.9,0-8.8-3.9-8.8-8.8V51.9
	C43.1,47.1,47.1,43.1,51.9,43.1L51.9,43.1z M80.7,46.8c-1.4,0-2.6,1.2-2.6,2.6c0,1.4,1.2,2.6,2.6,2.6s2.6-1.2,2.6-2.6
	C83.3,48,82.1,46.8,80.7,46.8L80.7,46.8z M81,65c0-8.8-7.2-16-16-16s-16,7.2-16,16c0,8.9,7.2,16,16,16S81,73.8,81,65L81,65z"/>
</svg>
