<?xml version="1.0" encoding="utf-8"?>
<!-- Generator: Adobe Illustrator 21.1.0, SVG Export Plug-In . SVG Version: 6.00 Build 0)  -->
<svg version="1.1" id="Layer_1" xmlns="http://www.w3.org/2000/svg" xmlns:xlink="http://www.w3.org/1999/xlink" x="0px" y="0px"
	 viewBox="0 0 130 130" style="enable-background:new 0 0 130 130;" xml:space="preserve">
<style type="text/css">
	.st0{fill:#262626;}
	.st1{fill-rule:evenodd;clip-rule:evenodd;fill:#262626;}
</style>
<path class="st0" d="M65,15.5c13.7,0,26,5.6,35,14.5c9,9,14.5,21.4,14.5,35c0,13.7-5.5,26-14.5,35c-9,8.9-21.3,14.5-35,14.5
	c-13.7,0-26-5.6-35-14.5c-9-9-14.5-21.4-14.5-35c0-13.7,5.5-26.1,14.5-35C39,21,51.3,15.5,65,15.5L65,15.5z M97.3,32.7
	C89,24.5,77.6,19.4,65,19.4c-12.6,0-24,5.1-32.3,13.4C24.4,41,19.3,52.4,19.3,65c0,12.6,5.1,24,13.4,32.3
	c8.3,8.3,19.7,13.4,32.3,13.4c12.6,0,24-5.1,32.3-13.4c8.3-8.3,13.4-19.7,13.4-32.3C110.7,52.4,105.6,41,97.3,32.7L97.3,32.7z"/>
<path class="st1" d="M90.3,49.6c-1.8,0.8-3.8,1.3-5.9,1.6c2.2-1.3,3.8-3.3,4.6-5.7c-2,1.2-4.2,2-6.6,2.5c-1.9-2-4.6-3.2-7.6-3.2
	c-5.7,0-10.4,4.6-10.4,10.2c0,0.8,0.1,1.6,0.3,2.3c-8.6-0.4-16.3-4.5-21.4-10.7c-0.9,1.5-1.4,3.3-1.4,5.1c0,3.6,1.9,6.7,4.6,8.5
	c-1.7,0-3.3-0.5-4.7-1.3c0,0.1,0,0.1,0,0.1c0,1.3,0.2,2.5,0.7,3.7c1.3,3.2,4.1,5.6,7.6,6.3c-0.9,0.2-1.8,0.4-2.7,0.4
	c-0.7,0-1.3-0.1-1.9-0.2c1.3,4.1,5.2,7,9.7,7.1c-3.6,2.7-8,4.4-12.9,4.4c-0.9,0-1.6-0.1-2.5-0.1c4.6,2.9,10.1,4.6,15.9,4.6
	c16.2,0,26.2-11.2,28.8-22.9c0.5-2.1,0.7-4.1,0.7-6.2c0-0.4,0-0.9,0-1.3C87.1,53.4,88.9,51.6,90.3,49.6L90.3,49.6z"/>
</svg>
